inDegrees=no
num_controls=7
num_derivatives=13
num_iterations=134
num_multipliers=7
num_parameters=0
num_slacks=7
num_states=26
objective=5.275450
objective_accelerations=0.711731
objective_balance=0.021105
objective_effort=0.176105
objective_height=4.316393
objective_ligament=0.050116
solver_duration=1480.691025
status=Solve_Succeeded
success=true
DataType=double
version=3
OpenSimVersion=4.4-2022-07-23-0e9fedc
endheader
time	/jointset/ground_pelvis/pelvis_tilt/value	/jointset/ground_pelvis/pelvis_tx/value	/jointset/ground_pelvis/pelvis_ty/value	/jointset/hip_l/hip_flexion_l/value	/jointset/hip_l/hip_adduction_l/value	/jointset/hip_l/hip_rotation_l/value	/jointset/back/lumbar_extension/value	/jointset/patellofemoral_l/patellar_flexion_l/value	/jointset/knee_l/knee_flexion_l/value	/jointset/knee_l/knee_adduction_l/value	/jointset/knee_l/knee_rotation_l/value	/jointset/ankle_l/ankle_angle_l/value	/jointset/subtalar_l/subtalar_angle_l/value	/jointset/ground_pelvis/pelvis_tilt/speed	/jointset/ground_pelvis/pelvis_tx/speed	/jointset/ground_pelvis/pelvis_ty/speed	/jointset/hip_l/hip_flexion_l/speed	/jointset/hip_l/hip_adduction_l/speed	/jointset/hip_l/hip_rotation_l/speed	/jointset/back/lumbar_extension/speed	/jointset/patellofemoral_l/patellar_flexion_l/speed	/jointset/knee_l/knee_flexion_l/speed	/jointset/knee_l/knee_adduction_l/speed	/jointset/knee_l/knee_rotation_l/speed	/jointset/ankle_l/ankle_angle_l/speed	/jointset/subtalar_l/subtalar_angle_l/speed	/forceset/tau_hip_flexion_l	/forceset/tau_hip_adduction_l	/forceset/tau_hip_rotation_l	/forceset/tau_knee_flexion_l	/forceset/tau_ankle_angle_l	/forceset/tau_subtalar_angle_l	/forceset/tau_lumbar_extension	lambda_cid13_p0	lambda_cid13_p1	lambda_cid13_p2	lambda_cid13_p3	lambda_cid13_p4	lambda_cid13_p5	lambda_cid14_p0	/jointset/ground_pelvis/pelvis_tilt/accel	/jointset/ground_pelvis/pelvis_tx/accel	/jointset/ground_pelvis/pelvis_ty/accel	/jointset/hip_l/hip_flexion_l/accel	/jointset/hip_l/hip_adduction_l/accel	/jointset/hip_l/hip_rotation_l/accel	/jointset/back/lumbar_extension/accel	/jointset/patellofemoral_l/patellar_flexion_l/accel	/jointset/knee_l/knee_flexion_l/accel	/jointset/knee_l/knee_adduction_l/accel	/jointset/knee_l/knee_rotation_l/accel	/jointset/ankle_l/ankle_angle_l/accel	/jointset/subtalar_l/subtalar_angle_l/accel	gamma_cid13_p0	gamma_cid13_p1	gamma_cid13_p2	gamma_cid13_p3	gamma_cid13_p4	gamma_cid13_p5	gamma_cid14_p0
0	0.04738263025822099	0.1083567981537261	0.9028461623977889	0.1266917050730164	-0.3702194662294397	-0.2288248489621389	-0.2144974744115991	0.2051547269256713	0.2051547269256735	-0.1745328852372308	-0.1638859130840441	0.09024399430361882	0.07888011222301781	0	0	0	0	0	0	0	0	0	0	0	0	0	0.1227583368785721	-0.09796854211955972	-0.01263788107034112	-0.2656464926764069	0.2026860412592234	-0.0598157390751393	-0.05298888153668368	35.97703387368581	20.84267059456928	-4.933484896657673	-27.16504867384296	-439.7289809977784	-78.42663630539722	-26.37628581075367	-3.480457177984974	-0.9089057012883013	-0.8501107384616402	11.31670809799249	-0.1630257173087214	3.316107457407658	-3.58255823587743	10.49935892957214	10.49935892957188	2.27535277882186	-0.7802718172362043	3.669062242003137	0.8836868374989623	2.555342926056302e-09	5.949821822436186e-07	-1.075160797091137e-07	5.103951961813738e-08	8.922494073646787e-09	2.453992804447372e-07	7.470064527938859e-08
0.01	0.04721624081170345	0.1083119666686864	0.902804902481127	0.1272415781883974	-0.3702266615923349	-0.2286514993520228	-0.2146806693678422	0.2056665269792656	0.2056665269792739	-0.1744210766253702	-0.163912447458218	0.09042348744917797	0.07892404946311654	-0.03315425484049366	-0.008932150007423962	-0.008228866921326584	0.1095125277342217	-0.00143211084678757	0.03453487401173042	-0.03637970338784972	0.1018879315704782	0.1018879315704777	0.02224291740080727	-0.005247407903996671	0.03571950326307871	0.008744421087918654	0.1197176914877102	-0.1009192928773943	-0.01189674946280993	-0.2616162704486247	0.1957630093365227	-0.05490599225048191	-0.05059821551922533	34.00028188113332	18.83776238217709	-4.364015438454542	-25.98512453380785	-440.3695191285187	-82.23154860762692	-26.37607470951237	-3.214365273145174	-0.8802373923612989	-0.8058054228199109	10.69920928183238	-0.1323325189921933	3.501954600813134	-3.626783211190602	9.962683458333268	9.962683458333325	2.181028759015152	-0.3880867632343465	3.496541562108672	0.8632849752473117	-9.298328416627183e-09	8.633259275417618e-07	-9.199763616022619e-08	8.828119317156767e-08	-1.778436033602043e-07	2.769099941145678e-07	1.096290135642165e-07
0.02	0.04672201768957008	0.1081788401351944	0.9026820477444815	0.128872713415259	-0.3702479838138216	-0.2281368455562335	-0.2152198827221538	0.2071830409860769	0.2071830409860775	-0.1740903853318242	-0.1639896782086781	0.09095480506609908	0.07905412396025623	-0.06556673512353327	-0.0176590096904837	-0.01631896399672077	0.2162524222962639	-0.002825371718709141	0.0682608371337577	-0.07120367961377982	0.2009427906428601	0.2009427906428583	0.04377653633381111	-0.01013927525811011	0.07036489427209476	0.01722745140819568	0.1166770460968033	-0.1038700436352457	-0.01115561785529273	-0.2575860482208794	0.1888399774138013	-0.04999624542584859	-0.04820754950178314	32.07110791862848	16.83718998668	-3.809707825353849	-24.86770629428015	-440.1694688576754	-85.85875347374868	-26.37517811938325	-3.33210226649421	-0.8678476364154106	-0.8223567692751639	10.76218146355658	-0.1552557223355358	3.15432527946704	-3.271412803493529	9.93274442995286	9.932744429952438	2.133493085261147	-0.7091637072595511	3.454239791190654	0.8314086839706368	-2.115199975931067e-08	1.131669672839905e-06	-7.647919261133866e-08	1.25522866724998e-07	-3.646097007940554e-07	3.084207077843983e-07	1.445573818490444e-07
0.03	0.04590722428706536	0.1079590809266618	0.9024787291114201	0.1315583182013774	-0.370282870109247	-0.227290850956074	-0.2160991590403949	0.2096765848970136	0.2096765848970104	-0.1735475664635031	-0.1641157929976618	0.09182685220145541	0.07926785649311478	-0.09724128625939639	-0.02629619765262519	-0.0243401587868893	0.3204239718002667	-0.004129621829685051	0.1007965473205479	-0.1043965510606606	0.297285477025239	0.2972854770252405	0.06467160118130735	-0.01500286147590533	0.1038131867291482	0.02547962167700298	0.1120617961149657	-0.09903457753965478	-0.009963961807281433	-0.2512026045713586	0.1798183156604221	-0.05077127233730337	-0.04484891774325238	29.11512241842646	17.45515919835783	-3.638434672747823	-22.64533134039406	-440.0889249309826	-83.67263359811878	-26.37324785949719	-3.062525980016814	-0.8621339664302834	-0.7913839361494825	10.17795693589742	-0.1148272926570477	3.282009479010137	-3.304969369279364	9.412924512009623	9.412924512010393	2.050352108221364	-0.3628716347721633	3.255454989120872	0.8160368859922299	-2.638918627111126e-08	1.279436442433135e-06	-7.452732591974655e-08	1.467440399646327e-07	-4.912762529476663e-07	3.261132722456682e-07	1.665379657285836e-07
0.04	0.04478020648462604	0.1076528539204446	0.9021953219100047	0.1352723015309525	-0.3703301624332176	-0.2261237361359017	-0.2173027130839035	0.2131191344256903	0.2131191344256911	-0.1727992291619649	-0.1642881267599863	0.09302644846461414	0.07956289386619267	-0.1280116151106393	-0.03495256922740242	-0.0323366776675452	0.4219281309872854	-0.005306577427798163	0.132484881136343	-0.1360592246673077	0.3907439141927854	0.3907439141927924	0.08488022297790244	-0.01938306992300482	0.1358747198325289	0.03348841945206785	0.107446546133131	-0.09419911144406422	-0.008772305759182164	-0.244819160921857	0.1707966539070383	-0.05154629924876102	-0.04149028598471506	26.20261120927642	18.07910447451778	-3.483637145018565	-20.47613550680713	-439.2339086757861	-81.31542647614002	-26.36951692024465	-3.151257809570208	-0.8716843589425142	-0.8174215873726407	10.22870340015976	-0.1297968197629893	2.984850005268015	-2.965373235446807	9.355894586986333	9.355894586986354	1.996204475080889	-0.612488153120396	3.176887920456152	0.7827341852221533	-3.148995041526478e-08	1.424717088815953e-06	-7.285518246232548e-08	1.676348936101685e-07	-6.167036392192104e-07	3.435209264139781e-07	1.882515849812097e-07
0.05	0.04334930105543387	0.1072601963867462	0.9018318020367373	0.1399888769398231	-0.3703886037936272	-0.2246455492305583	-0.2188147934730982	0.2174827773649851	0.217482777364981	-0.1718521834532231	-0.1645034949278387	0.09454025582145513	0.07993698769746505	-0.1580326326397322	-0.04355702601488776	-0.0403806736642064	0.5209278819813333	-0.00635782250671098	0.1629997310911446	-0.1661154713825469	0.4815080901643799	0.4815080901643829	0.1043989484001878	-0.02360351709650595	0.1666856799984867	0.04130410440964751	0.1032899535202587	-0.09189619266882829	-0.007650808831627376	-0.2402105684056732	0.1636618922403382	-0.05036022841921114	-0.03845296564637582	24.00887291101268	17.78276492519068	-3.247537450387804	-19.0243398308019	-438.570915306859	-80.9876945468848	-26.3631223515546	-2.906985511243835	-0.8515059181247727	-0.8000194618423629	9.666752064763953	-0.0894083399984452	3.061942232737982	-2.989543121261363	8.865153751347783	8.865153751347277	1.910446292246849	-0.3138102310820434	3.003082217900062	0.776833636559268	-3.240854713635575e-08	1.4194169253478e-06	-9.715445967838316e-08	1.734479963703318e-07	-6.813340590319974e-07	3.596838046740467e-07	1.936963406134393e-07
0.06	0.04162229309361875	0.1067821583692786	0.9013874160322972	0.1456816780817819	-0.3704568816024341	-0.2228667858772361	-0.220620194875785	0.2227397569938044	0.2227397569938051	-0.1707138025469712	-0.1647584650137696	0.0963561492106029	0.08038840797541986	-0.1872321216354274	-0.05202866598126919	-0.0485099039020539	0.617173277604851	-0.007273867107344656	0.192600170732016	-0.1947234273657469	0.5694112521000445	0.5694112521000471	0.1231472624802514	-0.02730345353468802	0.1962919262938229	0.04895370878856239	0.09913336090737467	-0.08959327389359319	-0.006529311903966433	-0.2356019758895155	0.1565271305736325	-0.04917415758966524	-0.03541564530804243	21.85446086103417	17.49083241733975	-3.025041077964789	-17.61652728326794	-437.209996583601	-80.50438537793318	-26.35288906257105	-2.986952102890703	-0.8451209947216834	-0.8344684356099051	9.677832326053698	-0.1027567241071728	2.801967942481992	-2.675715089038973	8.783691779800348	8.783691779801078	1.842122206636522	-0.5083860060565781	2.935945146331865	0.7495180694892004	-3.31510525975283e-08	1.407776517254343e-06	-1.225472703964821e-07	1.786262464616373e-07	-7.434046065728368e-07	3.757942713169262e-07	1.984560914616522e-07
0.07000000000000001	0.03960680396204885	0.1062200330850263	0.900861086851735	0.1523243571061448	-0.3705336000265939	-0.220798403936893	-0.2227038893621338	0.2288625617142361	0.2288625617142335	-0.1693915041223046	-0.1650498074180997	0.09846235167699639	0.08091566722288844	-0.2157282365120307	-0.06037512618142193	-0.05678261893070839	0.710907514877453	-0.008042109375104719	0.2209233947292502	-0.2217808929615273	0.6546757411750802	0.6546757411750923	0.1411770172318854	-0.03086626895854399	0.2247453292726767	0.05647741731333646	0.09465940126002362	-0.08651806031880473	-0.005305811039509296	-0.2310805218912068	0.1494052971669205	-0.04831129447651886	-0.03219563054243462	19.67112795698253	17.35605303958502	-2.840985148554228	-16.18102695362948	-436.0921723154659	-79.63725751216103	-26.33762604685646	-2.760303941708192	-0.8261830413584621	-0.8278254778397818	9.152971637283787	-0.05988621291682452	2.824638912390995	-2.68557575353245	8.326695100811607	8.326695100812584	1.763316071162925	-0.2654662212097685	2.76959445854098	0.750483022731064	-3.03297789749871e-08	1.289337055275431e-06	-1.61609456796491e-07	1.7115963846577e-07	-7.546665789103451e-07	3.823826284125142e-07	1.912198976520308e-07
0.08	0.03731048112938125	0.1055750882970333	0.9002512000326169	0.1598907289451182	-0.3706172065203926	-0.2184513618997691	-0.2250511211961775	0.2358237848513045	0.2358237848513052	-0.1678929253577791	-0.1653738253588087	0.100846999490154	0.08151750071135665	-0.2433988618551613	-0.06859256672940303	-0.06522143161322091	0.8019118405268701	-0.008651481035122612	0.2483321900883598	-0.2474308969047083	0.7370949354283735	0.7370949354283914	0.1584033304529625	-0.03383856080878529	0.2519809956466844	0.06386855698849241	0.09018544161267224	-0.08344284674401097	-0.004082310175009111	-0.2265590678928994	0.1422834637602116	-0.04744843136336636	-0.02897561577683273	17.52258297587817	17.226126006074	-2.670203904271388	-14.77720067837181	-434.3513058798949	-78.62546232994313	-26.31589044839258	-2.821854196196192	-0.8193170642873129	-0.8676879663815142	9.131850001416741	-0.0709826025587502	2.619082214857105	-2.394222758519142	8.214632815451873	8.214632815451909	1.681433900525108	-0.3902812913336345	2.692397825362668	0.7230042995655809	-2.727858412123855e-08	1.164007331755523e-06	-2.015535384017844e-07	1.62877233173956e-07	-7.6265057865409e-07	3.883566558598899e-07	1.832097719290006e-07
